<?xml version="1.0" encoding="UTF-8"?>
<svg id="Capa_1" data-name="Capa 1" xmlns="http://www.w3.org/2000/svg" viewBox="0 0 630.69 624.52">
  <defs>
    <style>
      .cls-1 {
        fill: #b19d6d;
      }

      .cls-1, .cls-2 {
        stroke-width: 0px;
      }

      .cls-2 {
        fill: #fdfdfd;
      }
    </style>
  </defs>
  <g>
    <path class="cls-1" d="m222.76,220.26l11.09,7.98c.54-3.9.54-4.76.54-4.76h12s0-.13.25,6.81c.31,8.64,1.91,14.68,8.45,20.27,8.46,7.23,15.58,16.06,24.15,23.14,12.96,10.71,23.73,23.64,36.48,34.51-.99,2.45-3.1,4.02-4.67,6.01-4.58-3.41-7.92-8.17-12.52-11.55-5.17-6.24-11.41-11.45-16.8-17.45-1.65-1.83-4.22-.68-5.59-2.57-.75-1.68-1.64-3.25-2.97-4.56-7.85-7.77-15.32-15.96-24.13-22.66-.9.84-.75,1.7-.75,2.5.31,21.05-.64,42.22.37,63.22.23,3.23-2.15,5.46-3.17,8.22-1.76,4.78-3.41,9.59-4.99,14.43-6.28,1.7-8.08.39-8.1-6.41-.05-28.62-.12-57.29,0-85.88,1.18-8.74-1.16-16.07-8.33-21.54-.4-.35-.78-.63-1.15-.84-2.35,3.62-5.7,6.36-8.86,9.15-15,13.23-28.23,28.26-42.83,41.86-14.13,13.16-27.76,26.81-41.27,40.59-.35.36-.79.59-1.28.73-2-1.25-3.35-3.14-4.77-4.95,5.15-3.71,9.2-8.59,13.68-12.99,25.89-25.01,50.92-50.99,77.19-75.58,2.54-2.68,4.85-5.61,8-7.66h0"/>
    <path class="cls-1" d="m394.57,47.58c.09,59.21.18,117.83.19,177.12,19.39-11.14,33.25-23.21,49.74-38.61v27.56c2.69.09,3.63-1.47,4.75-2.53,13.25-12.64,26.4-25.39,39.7-37.99,2.12-2.01,2.98-4.07,2.95-6.96-.14-13.49-.09-26.98-.08-40.47l5.92.05c.02,14.32.02,28.65.1,42.97.01,2.13-.45,3.82-2.04,5.35-21.98,20.71-42.53,43.42-67.73,60.38-1.11.75-2.39,1.28-1.44,2.97-3.2-.69-6.39-1.38-9.59-2.07,6.58-4.72,13.13-9.48,19.75-14.14,1.48-1.04,2.39-2.09,2.36-4.02-.09-5.79-.03-11.59-.03-18.47-14.81,12.82-28.84,24.21-46.02,33.28-2.93,1.55-4.45,1.81-4.44-2.59.1-60.8.02-121.59.01-182.39l5.92.56Z"/>
    <path class="cls-1" d="m547.06,186.74c-22.63,22.1-45.2,44.27-67.76,66.43-.93.91-2.15,1.64-2.37,3.1-3.59-2.7-8.6-2.63-11.83-6.03,5.5,3.56,8.99.62,12.9-3.29,21.69-21.63,43.58-43.06,65.49-64.46l3.57,4.24Z"/>
    <path class="cls-1" d="m69.27,158.71c7.11-13.97,16.02-26.77,26.08-38.76l-5.94-26.33c-3.34,3.47-6.79,6.85-9.99,10.45-12.18,13.67-22.98,28.31-31.32,44.7l21.17,9.94Z"/>
    <path class="cls-1" d="m47.27,188.37c-4.6,10.71-8.49,21.66-12.02,32.77-42.95,130.65,20.58,283.81,141.86,347.69,48.6,26.37,104.87,36.05,159.76,32.51,20.79-1.56,41.25-4.79,61.22-10.88,0,0,0,0,0,0,0,0,0,0,0,0,163.3-43.18,253.51-227.42,190.85-383.33h0c-20.68-54.67-59.52-102.16-108.13-134.49,0,0,0,0,0,0-47.11-31.79-102.84-49.41-159.65-50.47-30.04-.8-59.39,3.74-88.17,11.98-8.12,2.33-16.43,4.41-24,8.42-28.05,9.25-53.88,24.52-77.75,41.89-10.11,7.62-10.08,7.67-5.78,19.53.05.14.24.22.37.33.1-2.94-1.57-6.59,3.09-7.7-2.88-1.67-3.02-1.84.23-4.36,26.55-20.59,56.81-35.62,87.99-47.78h0c83.67-29.29,177.79-19.72,253.37,27.05,2.08,1.38,4.15,2.76,6.23,4.14,0,0,0,0,0,0,.94.62,1.88,1.25,2.82,1.87,45.36,31.93,82.01,75.38,103.39,126.78,33.3,83.36,24.56,181.52-22.25,258.11-10.07,16.68-21.87,32.09-35.21,46.3-.93.99-2.07,3.36-3.4,2.13-3.78-3.48-8.55-6.22-10.26-11.57-5.16-5.59-10.71-10.78-16.07-16.17-1.01-1.02-2.03-2.28-3.8-1.83-.01,0-.02,0-.03,0,.34-1.22.65-2.44-.05-3.67-2.15,1.45-3.26-.22-4.53-1.48-37.6-37.24-75.18-74.52-112.89-111.65-2.86-2.82-2.31-4.14.2-6.58,20.37-19.88,40.52-39.98,60.95-59.8,6.9-6.69,13.27-13.98,21.14-19.63-1.9-2.08-4.3-3.26-6.99-3.95-26.42,26.05-52.56,52.4-79.28,78.15-2.27,2.21-3.53,2.36-6.08.25-7.6-6.29-14.04-13.73-21.19-20.44-1.67-1.56-2.92-3.7-5.4-4.23-1.97,1.32-3.43,3.12-4.82,4.99,6.4,7.22,13.51,13.74,20.27,20.6,8.54,8.66,8.59,8.62-.62,16.56-1.19,1.2-2.78,2.39-4.24.82-8.95-8.89-18.51-17.17-26.62-26.89-3.64-.63-5.36-3.78-7.48-6.14-4.16-4.62-9.8-7.92-12.49-13.85-3.19.3-5.13,2.1-6.1,5.07,5.1,5.01,10.13,10.1,15.24,15.1,2.25,2.2,3,4.32.71,6.87.08,1.96,1.81,2.67,2.93,3.83,7.26,7.56,15.19,14.4,22.69,21.71,3.89,3.79,3.83,3.95-.07,7.91-1.87,1.9-3.79,3.74-5.64,5.66-4.25,4.39-4.11,5.15.09,9.82,9.66,10.76,20.4,20.42,30.63,30.61,18.86,18.79,37.66,37.65,56.49,56.46,1.76,1.76,3.38,3.69,5.68,4.82,2.11.76,3.53,2.4,5.07,3.9,5.31,5.18,10.41,10.58,15.78,15.7.84.95,1.22,2-.37,3.45,1.3.6,1.98-.6,2.94-1.01,0,0,0,0,0,0,0,0,0,0,0,0,.28.15.58.23.9.22,0,0,0,0,0,0,5.42,5.76,10.79,11.58,16.3,17.26,1.43,1.47,2.28,2.76,1.04,4.68,3.41,1.54,5.78,4.34,8.44,6.82,2.83,2.63,2.56,4.6-.68,6.61-22.83,14.46-47.37,26.27-73.47,33.52-1.85.52-3.91.88-5.18,2.57-.43-.23-.9-.44-1.42-.6-1.7-.31-3.3.14-4.92.54-22.04,5.55-44.38,8.89-67.15,8.89-37.5.31-75.11-4.34-110.29-17.75-9.01-3.4-8.97-3.54-8.97-12.99v-166.42c0-1.5.05-3,.03-4.5-.08-7.42,8.73-1.9,12.33-5.83-7.18-1.51-14.54-.77-21.75-1.87-.26,1.57,1.93,2.87-.11,4.79-12.33,11.66-23.7,24.27-35.53,36.42-1.81,1.86-3.42,1.6-5.13-.12-3.16-3.19-6.39-6.32-9.51-9.56-3.87-4.02-4.45-4.12-8.36-.26-17.37,16.53-34.52,33.23-51.35,50.31-4,3.96-4.56,3.88-7.58-1.07-7.61-12.9-14.78-26.05-21.12-39.62-1.79-3.75-1.46-6.5,2.06-9.02,3.51-2.52,6.49-5.7,9.55-8.77,15.99-16.02,32.04-31.98,47.97-48.06,2.52-2.54,5.06-4.69,8.73-5.06-2.97-2.91-5.96-5.77-9.44-8.07-1.15,6.96-7.07,9.9-11.64,14.11.08-8.57-1.31-16.97.39-25.3-3.01-3.54-6.01-7.08-9.02-10.63.25,1.11.73,2.23.73,3.34.03,13.33-.05,26.66.01,39.99.01,2.28-1.11,3.69-2.57,5.13-14.43,14.26-28.35,27.88-42.46,42.69-29.73-72.79-26.89-154.63,3.67-226.41l-5.09-1.86Zm426.95,342.62c-6.02-5-11.07-11-16.86-16.22-1.97-1.77-2.55-3.37-1.53-5.68-2.28,0-4.19-1.66-6.49-1.56-.17-.37-.39-.71-.69-1-1.27-1.08-2.52-2.18-3.74-3.31-1.26-1.34-2.56-2.63-3.92-3.88-1.15-1.23-2.25-2.51-3.29-3.86-31.18-32.51-63.58-64.04-95.92-95.47-4.1-3.92-4.02-4.37-.03-8.38,7.04-7.09,14.1-14.16,21.19-21.2,3.78-3.75,4.01-3.69,7.99.14,38.57,37.7,77.15,75.4,114.77,114.06.65.31,1.32.36,2.01.12.01,0,.02-.02.04-.03-.24,2.17,1.61,3.19,2.84,4.46,5.15,5.32,10.49,10.45,15.65,15.77,2.37,2.31,4.62,4.76,7.08,6.97,2.47,2.22,2.81,4.09.2,6.55-8.21,7.72-16.72,15.06-25.84,21.69-2.22,1.61-4.16,1.89-5.93-.62-2.2-3.12-5.29-5.48-7.55-8.56Zm-311.91,21.93c-1.41.91-2.73-.67-3.9-1.44-28.49-18.72-52.87-41.76-73.14-69.2-2.81-3.81-2.32-5.87.93-9.01,16.14-15.64,32.08-31.48,47.96-47.38,3.03-3.04,5.04-3.59,8.19.06,5.55,6.41,11.58,12.42,17.6,18.4,2.19,2.18,3.04,4.4,3.01,7.47-.14,16.32-.06,32.63-.06,48.95h.02c0,15.98.01,31.97-.03,47.95,0,1.43.75,3.34-.58,4.2Zm28.7,17.14c-5.8-3.24-11.7-6.35-17.74-9.12-3.78-1.73-4.79-4.29-4.78-8.22,0-32.32-.36-64.65-.08-96.97.07-7.51-1.01-13.67-7.36-18.23-1.59-1.14-3.13-2.38-.79-4.7,11.44-11.38,22.73-22.91,34.07-34.38.44.2.87.41,1.31.62.03,55.94.03,111.88.2,167.81.01,4.38-.74,5.47-4.83,3.19Z"/>
    <path class="cls-1" d="m39.74,185.44c-63.37,143.42-5.2,317.19,133.8,390.99l-9.88,11.21C64.87,535.09,1.98,424.74,0,313.88c.48-47.46,8.81-90.57,26.21-131.9l13.53,3.46Z"/>
    <path class="cls-1" d="m191.01,600.95c89.77,35.99,201.29,31.54,284.86-18.62h0c1.99-.42,3.68-1.36,4.99-2.93h0c1.58-.18,2.79-1.02,3.85-2.12.39-.28.77-.57,1.16-.85h0c5.44-2.71,10.25-6.36,15.01-10.09h0c.33-.29.67-.57,1-.86,0,0,0,0,0,0,3.56-1.69,6.59-4.08,9.25-6.95,3.18-1.23,5.33-3.8,7.75-6.01h0c2.09-.88,3.63-2.41,4.96-4.18,71.44-61.87,113.61-163.29,105.93-257.62-.97-9.88-1.51-19.83-3.87-29.53-1.04-5.28-2.09-10.56-3.13-15.84.15-1.51.11-2.97-.73-4.26-.08-.14-.17-.28-.29-.41-2.8-6.76-3.14-14.15-5.35-21.06-5.79-18.18-12.93-35.82-21.93-52.65-5.05-9.44-9.93-19.02-16.72-27.41-3.34-4.73-6.68-9.46-10.02-14.19h0s0,0,0,0c0-2.03-1.73-2.82-2.89-4.01h0c-18.08-24.6-40.58-45.32-65.13-63.35-5.96-4.31-11.67-9.22-18.88-11.58C407.37-1.7,304.05-12.48,220.91,14.41c-27.09,7.32-52.43,19.87-76.59,34.06l-3.91,19.04c22.84-15.39,47.75-27.27,73.58-36.69.36-.09.72-.24,1.07-.39C304.71-.99,407.23,11.9,485.91,65.35c10.86,8.4,21.97,16.47,32.2,25.68,13.74,12.37,25.9,26.15,37.49,40.49h0c23.11,31.23,41.54,66.08,50.78,103.99,0,0,0,0,0,0,.78,2.64.89,5.49,2.4,7.91h0c-.33,2.12.27,4.06,1.14,5.96h0c23.87,110.61-19.88,230.34-109.19,299.76-2.84,1.05-4.89,3.18-7.12,5.09h0s0,0,0,0c-.3.24-.6.47-.9.71,0,0,0,0,0,0-1.61,1.13-3.22,2.27-4.82,3.4h0c-4.39,2.89-9.1,5.32-13.09,8.81,0,0,0,0,0,0-1.58.24-2.85,1.05-3.93,2.19h0c-1.37.64-2.98.84-3.95,2.18h0c-84.17,46.29-189,52.94-276.9,12.8l.99,16.65Zm434.14-337.15c-.01-.12-.03-.24-.04-.36.02-.01.04-.01.06-.03,0,.13-.02.25-.02.39Z"/>
  </g>
  <g>
    <path class="cls-2" d="m449.14,513.9c-.47-.2-.96-.31-1.48-.31-1.29.09-2.53.41-3.77.72-25.46,13.01-52.56,15.32-80.25,11.12-27.82-4.22-50.76-17.84-69.88-38.5-25.58-27.64-37.75-60.2-37.55-97.66.02-4.19,1.38-6.99,5.7-8.12,3.22-.84,6.31-2.17,9.36-3.46,8.43-3.57,16.86-7.2,24.44-12.43,4.21-2.9,4.15-4.4,1.12-8.49-3.79-5.11-8.84-9.07-12.69-14.08-2.65-3.45-5.37-3.71-9.05-1.59-16.92,9.8-35.25,14.55-54.77,15-34.84.81-65-10.4-90.09-34.8-2.09-1.65-3.55-4.11-6.35-4.82-4.47-4.89-8.33-10.26-11.86-15.83-16.28-25.69-23.73-53.76-21.07-84.09,2.3-26.21,12.9-49.29,28.57-70.19,1.08-1.44,2.67-2.63,2.2-4.75-2.32-10.48-4.45-21.01-7.92-31.83-1.82,1.74-3.18,2.94-4.42,4.24-11.39,11.95-21.37,24.85-29.26,39.49-15.1,28-22.1,57.65-19.2,89.36,2.8,30.52,13.37,58.18,32.06,82.61,2.24,4.17,5.09,7.9,8.41,11.27,3.61,3.87,7.3,7.66,11.26,11.18,3.52,2.63,6.79,5.55,9.81,8.74,20.89,16.84,44.82,26.46,71.29,30.05,6.92,1.56,14.06.32,21.01,1.59,2.8.8,5.88-.24,8.59,1.27,1.5,1.26,1.15,3,1.16,4.63.03,5.49.03,10.97,0,16.46.86,16.18,5.28,31.5,11.31,46.39,10.6,26.17,27.15,47.98,48.63,66.2,25.57,21.69,55.24,33.22,88.48,35.23,17.96,1.08,36.01.65,53.59-4.1,14.02-3.79,27.74-8.4,39.73-16.98,1.76-2.19,1.48-4.37-.4-6.19-5.77-5.6-10.27-12.41-16.73-17.33Z"/>
    <path class="cls-2" d="m125.82,104.33c1.97,8.69,3.95,17.38,6.06,26.65,1.96-1.48,3.32-2.4,4.55-3.46,10.42-8.95,21.85-16.32,34.56-21.55,44.62-18.36,86.58-11.79,124.07,16.98,36.7,28.16,52.19,67.34,50.97,113.33-.08,3.03-.96,4.66-4.09,5.76-10.5,3.71-20.76,8.11-30.15,14.18-10.08,6.52-9.94,6.6-.74,14.63,1.81,1.58,2.83,1.53,4.51-.08,15.73-15.12,34.59-24.59,55.49-30.17,3.6-.96,4.66-2.72,4.78-6.28.74-21.22-2.55-41.8-9.55-61.8-21.87-62.52-78.81-104.14-146.74-105.1-33.53-.47-63.2,10.83-90.62,29.2-3.48.22-5.92,1.11-3.58,5.31.38.68-.02,1.66.49,2.39Z"/>
    <path class="cls-2" d="m326.31,278.86c-1.08.95-2.78,1.81-2.39,4.13,3.68-.6,5.8-3.95,10.09-4.86-5.21,11.25-10.26,21.55-18.29,30.07-2.6,1.2-4.03,3.58-5.71,5.7-2.77,3.73-7.36,5.94-8.91,10.69,4.89,8.68,12.03,15.14,20.25,20.53.54.35-.16-.18.48,0,5.17-2.43,8.34-7.04,12.03-11.07,1.47-2.25,3.62-3.91,5.26-6.01,7.72-8.37,13.41-18.08,18.81-28.03,5.17-9.53,9.25-19.49,12.58-29.78.68-2.09,1.33-4.12,4.05-4.41,11.41-1.23,22.85-1.87,34.27-.52,13.74,1.62,27.11,4.88,39.96,10.13,2.81.62,5.12,2.49,7.94,3.05,2.74,1.43,5.58,2.71,8.21,4.31,13.63,8.31,24.77,19.43,35.06,31.45,1.8,2.1,2.77,2.58,4.94.31,5.05-5.27,10.35-10.31,15.75-15.23,2.4-2.19,2.28-3.67.21-6.06-12.73-14.64-27.17-27.21-43.97-36.98-.97-1.89-2.52-3.19-4.6-3.31-2.74-.16-4.92-1.54-7.22-2.72-1.91-.95-3.77-1.99-5.72-2.82-10.56-4.51-21.5-7.77-32.76-10-2.86-2.26-5.93-3.53-9.59-2.07-15.68,8.06-32.15,14.05-49.05,19.04-15.85,4.68-29.37,13.63-41.67,24.47Z"/>
    <path class="cls-2" d="m530.53,467.24c-6.72-4.02-12.85-8.83-18.61-14.11-2.12-1.94-3.11-1.57-4.37.9-4.3,8.46-9.78,16.17-15.67,23.58.07,1.22-1.08,2.47.08,3.67,3.41,3.3,6.71,6.74,10.28,9.86,3.16,2.75,5.22,6.82,9.59,8.14,8.12-8.22,14.04-18.03,20.13-27.72,1.41-2.24.36-3.25-1.43-4.32Z"/>
    <path class="cls-2" d="m503.36,500.15c-5.15-5.28-10.35-10.53-15.53-15.78-.72-.08-1.44-.16-2.16-.23-8.62,10.04-18.92,18.1-29.91,25.35-1.97,1.68-2.55,3.09-.18,5.25,4.37,3.97,8.33,8.37,12.55,12.51,1.71,1.68,3.04,3.98,5.83,4.18,1.65.53,2.9-.39,4.13-1.19,9.49-6.17,18.03-13.51,26.24-21.26,1.32-1.25,2.61-2.62,2.43-4.69-.61-1.81-2.17-2.85-3.42-4.13Z"/>
    <path class="cls-2" d="m295.25,334.33c5.83,5.45,11.25,11.33,16.83,17.04,3.99-1.07,3.59-3.31,1.36-5.73-3.46-3.74-6.99-7.41-10.64-10.96-2.06-2.01-3.49-4.88-6.78-5.35-3.26,1.21-3.53,2.42-.77,5Z"/>
    <path class="cls-2" d="m240.98,342.58c14.04-2.71,26.86-8.18,37.26-18.1,7.29-6.96,13.82-14.73,20.68-22.14-.15-.63-.09-1.47-.47-1.86-5.9-5.94-11.94-11.75-17.77-17.76-1.68-1.73-2.59.4-3.88.25-1.9-.11-3.03,1.21-4.12,2.4-8.89,9.8-17.17,20.06-23.67,31.64-.78,1.39-1.82,2.78-1.06,4.55-2.71,5.58-5.41,11.17-7.31,17.1-.46,1.45-1.36,2.74.35,3.91Z"/>
  </g>
</svg>