<?xml version="1.0" encoding="utf-8"?>
<!-- Generator: Adobe Illustrator 19.2.0, SVG Export Plug-In . SVG Version: 6.00 Build 0)  -->
<svg version="1.1" id="Layer_1" xmlns="http://www.w3.org/2000/svg" xmlns:xlink="http://www.w3.org/1999/xlink" x="0px" y="0px"
	 viewBox="0 0 500 500" style="enable-background:new 0 0 500 500;" xml:space="preserve">
<style type="text/css">
	.st0{fill:#ECF4F7;}
	.st1{fill:#1C1D21;}
	.st2{fill:#83E1E5;}
	.st3{fill:#AAB1BA;}
	.st4{fill:none;stroke:#1C1D21;stroke-width:10;stroke-linecap:round;stroke-linejoin:round;stroke-miterlimit:10;}
	.st5{fill:#FDDF7F;}
	.st6{fill:#FFFFFF;}
</style>
<g>
	<g>
		<g>
			<path class="st0" d="M105.5,166.7l-82.5,51c-24,14.8-24,49.7,0,64.6c23.7,14.6,52.9,32.7,82.5,51c88.6,54.8,200.5,54.8,289,0
				l82.5-51c24-14.8,24-49.7,0-64.6c-23.7-14.6-52.9-32.7-82.5-51C306,111.9,194,111.9,105.5,166.7z"/>
		</g>
	</g>
	<g>
		<g>
			<path class="st1" d="M250,379.4c-52,0-102.9-14.5-147.2-41.8l-82.5-51C7.6,278.7,0,265,0,250c0-15,7.6-28.7,20.4-36.5l82.5-51
				l2.6,4.3l-2.6-4.3c44.2-27.4,95.1-41.8,147.2-41.8c52,0,102.9,14.5,147.2,41.8l82.5,51C492.4,221.3,500,235,500,250
				c0,15-7.6,28.7-20.4,36.5l-82.5,51C352.9,364.9,302,379.4,250,379.4z M250,130.4c-49.1,0-98.1,13.5-141.9,40.6l-82.5,51
				C15.8,228,10,238.5,10,250c0,11.5,5.8,22,15.6,28l82.5,51c87.5,54.1,196.3,54.1,283.8,0l82.5-51c9.8-6.1,15.6-16.5,15.6-28
				c0-11.5-5.8-22-15.6-28l-82.5-51C348.1,143.9,299.1,130.4,250,130.4z"/>
		</g>
	</g>
	<g>
		<g>
			<circle class="st3" cx="250" cy="250" r="88.5"/>
		</g>
	</g>
	<g>
		<g>
			<path class="st1" d="M215.3,173.5c-1.9,0-3.8-1.1-4.6-3c-1.1-2.5,0.1-5.5,2.6-6.6c2.7-1.2,5.5-2.2,8.4-3.1
				c2.6-0.8,5.4,0.6,6.3,3.3c0.8,2.6-0.6,5.4-3.3,6.3c-2.5,0.8-5,1.7-7.5,2.8C216.7,173.4,216,173.5,215.3,173.5z"/>
		</g>
	</g>
	<g>
		<g>
			<path class="st1" d="M166.1,226.7c-0.5,0-1.1-0.1-1.6-0.3c-2.6-0.9-4-3.7-3.1-6.3c5.7-17,16.2-31.9,30.2-43.1
				c2.2-1.7,5.3-1.4,7,0.8c1.7,2.2,1.4,5.3-0.8,7c-12.5,10-21.9,23.4-27,38.5C170.2,225.4,168.2,226.7,166.1,226.7z"/>
		</g>
	</g>
	<g>
		<g>
			<path class="st1" d="M250,343.5c-51.6,0-93.5-41.9-93.5-93.5c0-2.8,2.2-5,5-5c2.8,0,5,2.2,5,5c0,46,37.5,83.5,83.5,83.5
				s83.5-37.5,83.5-83.5S296,166.5,250,166.5c-2.8,0-5-2.2-5-5c0-2.8,2.2-5,5-5c51.6,0,93.5,41.9,93.5,93.5S301.6,343.5,250,343.5z"
				/>
		</g>
	</g>
	<g>
		<g>
			<circle class="st2" cx="250" cy="250" r="37"/>
		</g>
	</g>
	<g>
		<g>
			<path class="st1" d="M250,292c-23.2,0-42-18.8-42-42s18.8-42,42-42s42,18.8,42,42S273.2,292,250,292z M250,218
				c-17.6,0-32,14.4-32,32s14.4,32,32,32s32-14.4,32-32S267.6,218,250,218z"/>
		</g>
	</g>
	<g>
		<g>
			<path class="st3" d="M23,282.3c21.8,13.5,48.2,29.8,75.3,46.6c0.6-0.2,0.9-0.4,0.9-0.4S68.5,287.9,68.5,250s30.7-78.5,30.7-78.5
				l-0.5-0.6L23,217.7C-1,232.5-1,267.4,23,282.3z"/>
		</g>
	</g>
	<g>
		<g>
			<path class="st3" d="M431.5,250c0,37.9-30.7,78.5-30.7,78.5s0,0.3,0,1l76.3-47.2c24-14.8,24-49.7,0-64.6
				c-21.8-13.5-48.2-29.8-75.3-46.6l-0.9,0.4C400.8,171.5,431.5,212.1,431.5,250z"/>
		</g>
	</g>
	<g>
		<g>
			<path class="st1" d="M98.3,333.9c-0.9,0-1.8-0.3-2.6-0.7l-75.3-46.6C7.6,278.7,0,265,0,250c0-15,7.6-28.7,20.4-36.5l75.7-46.8
				c2-1.3,4.7-0.9,6.3,0.9l0.5,0.6c1.6,1.8,1.8,4.5,0.3,6.4c-0.3,0.4-29.7,39.8-29.7,75.5s29.4,75.1,29.7,75.5
				c0.9,1.2,1.2,2.8,0.8,4.3c-0.4,1.5-1.5,2.7-2.9,3.3l-0.9,0.4C99.7,333.7,99,333.9,98.3,333.9z M83.9,185.9L25.6,222
				C15.8,228,10,238.5,10,250c0,11.5,5.8,22,15.6,28l0,0l58.3,36.1c-9.1-15.8-20.4-40.3-20.4-64.1S74.8,201.7,83.9,185.9z"/>
		</g>
	</g>
	<g>
		<g>
			<path class="st1" d="M400.7,334.5c-0.9,0-1.7-0.2-2.5-0.7c-1.6-0.9-2.6-2.6-2.5-4.4c0-0.7,0-1.1,0-1.1c0.1-1,0.4-2,1-2.8
				c0.3-0.4,29.7-39.8,29.7-75.5s-29.4-75.1-29.7-75.5c-0.9-1.2-1.2-2.8-0.8-4.3c0.4-1.5,1.5-2.7,2.9-3.3l0.9-0.4
				c1.5-0.6,3.2-0.5,4.6,0.4l75.3,46.6C492.4,221.3,500,235,500,250c0,15-7.6,28.7-20.4,36.5l-76.3,47.2
				C402.6,334.2,401.6,334.5,400.7,334.5z M416,185.9c9.1,15.8,20.5,40.3,20.5,64.1s-11.3,48.3-20.5,64.1l58.3-36.1
				c9.8-6.1,15.6-16.5,15.6-28c0-11.5-5.8-22-15.6-28L416,185.9z"/>
		</g>
	</g>
</g>
</svg>
