<?xml version="1.0" encoding="UTF-8"?>
<svg id="Capa_2" data-name="Capa 2" xmlns="http://www.w3.org/2000/svg" viewBox="0 0 457.83 248.19">
  <defs>
    <style>
      .cls-1 {
        fill: #36393c;
      }

      .cls-1, .cls-2 {
        stroke-width: 0px;
      }

      .cls-2 {
        fill: #497e86;
      }
    </style>
  </defs>
  <g id="Capa_1-2" data-name="Capa 1">
    <g>
      <path class="cls-2" d="m145.25,114.64V0h22.31v103.67h4v-45.37h22.31v56.34h-48.63Z"/>
      <path class="cls-2" d="m246.49,114.64h-37.63c-3.11,0-5.72-.52-7.83-1.56-2.11-1.04-3.16-2.32-3.16-3.85v-38.98c0-1.53,1.05-2.81,3.16-3.85,2.11-1.04,4.71-1.56,7.83-1.56h15.32v-28h-4v26.04h-22.31v-31.44c0-1.53,1.05-2.84,3.16-3.93,2.11-1.09,4.71-1.64,7.83-1.64h26.64c3.11,0,5.71.55,7.83,1.64,2.11,1.09,3.16,2.4,3.16,3.93v83.2Zm-26.31-10.97h4v-27.84h-4v27.84Z"/>
      <g>
        <path class="cls-2" d="m92.75,218.9h-20.45v-10.16h5.97c3.13,0,5.75-.52,7.88-1.57,2.12-1.04,3.19-2.33,3.19-3.87v-45.67c0-1.54-1.06-2.83-3.19-3.88-2.13-1.04-4.75-1.57-7.88-1.57h-15.42v-2.14h15.42c3.13,0,5.75-.52,7.88-1.57,2.12-1.04,3.19-2.34,3.19-3.88v-45.67c0-1.54-1.06-2.86-3.19-3.96-2.13-1.1-4.75-1.65-7.88-1.65h-37.89v115.41h16.11v10.16h-19.52c-7.96,0-14.41,6.45-14.41,14.41v14.88h84.6v-14.88c0-7.96-6.45-14.41-14.41-14.41Zm-29.9-114.53h4.02v34.62h-4.02v-34.62Zm4.02,93.32h-4.02v-34.46h4.02v34.46Z"/>
        <path class="cls-2" d="m32.89,84.76c.31-.15,31.27-14.81,64.02.04.5.23,1.02.33,1.53.33,1.41,0,2.77-.81,3.39-2.18.85-1.87.02-4.07-1.85-4.92-36.04-16.34-68.98-.63-70.36.05-1.84.9-2.61,3.12-1.71,4.97.9,1.85,3.13,2.61,4.97,1.72Z"/>
        <path class="cls-2" d="m113.35,60.49c-49.74-22.56-95.18-.89-97.09.05-1.84.9-2.61,3.13-1.71,4.97.9,1.84,3.13,2.61,4.97,1.71.44-.22,44.29-21.03,90.75.04.5.23,1.02.33,1.53.33,1.41,0,2.77-.81,3.39-2.18.85-1.87.02-4.07-1.85-4.92Z"/>
        <path class="cls-2" d="m127.53,43.03c-64.28-29.15-122.98-1.16-125.45.05-1.85.9-2.61,3.13-1.71,4.97.9,1.85,3.13,2.6,4.97,1.71.57-.28,57.99-27.67,119.11.05.5.23,1.02.33,1.53.33,1.41,0,2.77-.81,3.39-2.18.85-1.87.02-4.07-1.85-4.92Z"/>
      </g>
      <path class="cls-1" d="m119.81,119.75h22.31v83.36c0,1.53-1.11,2.81-3.33,3.85-2.22,1.04-4.89,1.56-7.99,1.56h-26.31c-3.11,0-5.72-.52-7.83-1.56-2.11-1.04-3.16-2.32-3.16-3.85v-83.36h22.31v77.79h4v-77.79Z"/>
      <path class="cls-1" d="m183.75,208.52h-26.64c-3.11,0-5.72-.52-7.83-1.56-2.11-1.04-3.16-2.32-3.16-3.85v-31.44h22.31v25.88h4v-27.84h-15.32c-3.11,0-5.72-.54-7.83-1.64-2.11-1.09-3.16-2.4-3.16-3.93v-38.81c0-1.53,1.05-2.84,3.16-3.93,2.11-1.09,4.71-1.64,7.83-1.64h26.64c3.11,0,5.71.55,7.83,1.64,2.11,1.09,3.16,2.4,3.16,3.93v31.44h-22.31v-26.04h-4v28h15.32c3.11,0,5.71.52,7.83,1.56,2.11,1.04,3.16,2.32,3.16,3.85v38.98c0,1.53-1.06,2.81-3.16,3.85-2.11,1.04-4.72,1.56-7.83,1.56Z"/>
      <path class="cls-1" d="m247.36,234.39h-22.31v-25.88h-14.99c-3.11,0-5.78-.52-7.99-1.56-2.22-1.04-3.33-2.32-3.33-3.85v-77.79c0-1.53,1.11-2.84,3.33-3.93,2.22-1.09,4.88-1.64,7.99-1.64h37.3v114.64Zm-26.31-36.85h4v-66.82h-4v66.82Z"/>
      <path class="cls-1" d="m277.66,119.75h22.31v83.36c0,1.53-1.11,2.81-3.33,3.85-2.22,1.04-4.89,1.56-7.99,1.56h-26.31c-3.11,0-5.72-.52-7.83-1.56-2.11-1.04-3.16-2.32-3.16-3.85v-83.36h22.31v77.79h4v-77.79Z"/>
      <path class="cls-1" d="m341.61,208.52h-26.64c-3.11,0-5.72-.52-7.83-1.56-2.11-1.04-3.16-2.32-3.16-3.85v-77.79c0-1.53,1.05-2.84,3.16-3.93,2.11-1.09,4.71-1.64,7.83-1.64h26.64c3.11,0,5.71.55,7.83,1.64,2.11,1.09,3.16,2.4,3.16,3.93v44.38h-26.31v27.84h4v-25.88h22.31v31.44c0,1.53-1.06,2.81-3.16,3.85-2.11,1.04-4.72,1.56-7.83,1.56Zm-15.32-49.79h4v-28h-4v28Z"/>
      <path class="cls-1" d="m367.58,208.52c-3.11,0-5.72-.52-7.83-1.56-2.11-1.04-3.16-2.32-3.16-3.85v-77.79c0-1.53,1.05-2.84,3.16-3.93,2.11-1.09,4.71-1.64,7.83-1.64h15.32v-25.88h22.31v114.64h-37.63Zm15.32-77.79h-4v66.82h4v-66.82Z"/>
      <path class="cls-1" d="m457.83,208.52h-37.63c-3.11,0-5.72-.52-7.83-1.56-2.11-1.04-3.16-2.32-3.16-3.85v-38.98c0-1.53,1.05-2.81,3.16-3.85,2.11-1.04,4.71-1.56,7.83-1.56h15.32v-28h-4v26.04h-22.31v-31.44c0-1.53,1.05-2.84,3.16-3.93,2.11-1.09,4.71-1.64,7.83-1.64h26.64c3.11,0,5.71.55,7.83,1.64,2.11,1.09,3.16,2.4,3.16,3.93v83.2Zm-26.31-10.97h4v-27.84h-4v27.84Z"/>
    </g>
  </g>
</svg>