<svg xmlns="http://www.w3.org/2000/svg" viewBox="0 0 64 64"><defs><style>.cls-1{opacity:0.2;}</style></defs><title>Planets</title><g id="planets"><path d="M33,49a1,1,0,0,1-1-1c-.07-1.92,2.82-.1,7.88-3.23A15,15,0,0,0,38,18.26C23.14,11.87,10.23,30.14,20.7,41.87a1,1,0,0,1-1.51,1.31A17,17,0,0,1,15,32a14.37,14.37,0,0,1,.13-2,17.71,17.71,0,0,1,2.08-6.35A17,17,0,0,1,45.77,22C54.12,33.75,45,49,33,49Z"/><path d="M30.28,48.91c-.79,0-.9-.68-1.26-1.19a6,6,0,0,0-6.88-2.42,1,1,0,0,1-.79-1.84C27.81,40.89,33.7,48.91,30.28,48.91Z"/><path d="M51.89,47.8a1,1,0,0,1,0-2c1.4,0,2.33-.28,2.62-.8.7-1.21-1.29-4.81-7.32-9.84a1,1,0,0,1,1.28-1.54c3.76,3.14,9.77,8.92,7.78,12.38C55.56,47.19,54.1,47.8,51.89,47.8Z"/><path d="M43.49,46.1c-9.13-3-21.76-10.33-27.44-15.3C2.56,20.31,4.84,12,22.37,18.55a1,1,0,0,1-.7,1.88C19.35,19.53,10.75,16.8,9.49,19,8,21.61,16.7,28.87,19.55,31c9,6.71,20,11.88,24.57,13.2A1,1,0,0,1,43.49,46.1Z"/><path d="M20,23c-1.72,2.3-.78,2-1.86,2a1,1,0,0,1-.94-1.34C17.94,22.92,17.08,23,20,23Z"/><path d="M47.88,31H47a14.78,14.78,0,0,0-.26-2c1.29,0,1.44-.05,1.77.2A1,1,0,0,1,47.88,31Z"/><path d="M18.73,39A15.58,15.58,0,0,0,20,41H18.14a1,1,0,0,1-.47-1.88C17.92,39,18.08,39,18.73,39Z"/><path d="M33.54,39.66a7.66,7.66,0,0,1-2.31,1.05c-1-.54-2.07-1.11-3.1-1.71a7.19,7.19,0,0,0,3.29-.46C32.13,38.93,32.84,39.31,33.54,39.66Z"/><path d="M48.5,36c0,1.2-1.27,1-2.36,1,.85-2.39.14-2,1.36-2A1,1,0,0,1,48.5,36Z"/><path d="M19.55,31c-2.34,0-3.42,0-3.52,0a1,1,0,0,1,.1-2c1.41,0,1.17-.07,1.13.2C18,29.81,18.75,30.4,19.55,31Z"/><path d="M44.49,23c-.67,0-.32.12-.9-.53A14.8,14.8,0,0,0,42.21,21h2.28A1,1,0,0,1,44.49,23Z"/><path d="M31.41,48A8,8,0,1,0,24,59,8,8,0,0,0,31.41,48ZM24,57c-6.8,0-8.32-9.62-1.86-11.7A6,6,0,1,1,24,57Z"/><path d="M49.27,26.16c7-7-.31-18.83-9.72-15.69-4.65,1.52-4.61,4.89-6.19,3.77a1,1,0,0,1-.24-1.4A11.5,11.5,0,1,1,50.7,27.56,1,1,0,0,1,49.27,26.16Z"/><path d="M48.63,28.43a1,1,0,0,1-2,.42A15,15,0,0,0,32.56,17a1,1,0,0,1,.08-2A17,17,0,0,1,48.63,28.43Z"/><path d="M9,30a5,5,0,1,0,5,5A5,5,0,0,0,9,30Zm0,8a3,3,0,1,1,3-3A3,3,0,0,1,9,38Z"/><path d="M42,13a1,1,0,0,1-.71-1.71l2.5-2.5a1,1,0,0,1,1.42,1.42C42.51,12.91,42.55,13,42,13Z"/><path d="M42,20a1,1,0,0,1-.71-1.71l2.5-2.5a1,1,0,0,1,1.42,1.42C42.51,19.91,42.55,20,42,20Z"/><path d="M48,22a1,1,0,0,1-.71-1.71l4.5-4.5a1,1,0,0,1,1.42,1.42C48.59,21.82,48.59,22,48,22Z"/><path d="M17,12a1,1,0,0,1-2,0A1,1,0,0,1,17,12Z"/><path d="M56.56,25.9a1,1,0,0,1,.88-1.8A1,1,0,0,1,56.56,25.9Z"/><path d="M52.56,34.9a1,1,0,0,1,.88-1.8A1,1,0,0,1,52.56,34.9Z"/><path d="M36,58a1,1,0,0,1-2,0A1,1,0,0,1,36,58Z"/><path d="M40,51a1,1,0,0,1-2,0A1,1,0,0,1,40,51Z"/><path d="M13,45a1,1,0,0,1-2,0A1,1,0,0,1,13,45Z"/><path d="M36,6a1,1,0,0,1-2,0A1,1,0,0,1,36,6Z"/><path d="M28,13a1,1,0,0,1-2,0A1,1,0,0,1,28,13Z"/><path d="M49,42a4,4,0,1,0,3.58,5.77A4,4,0,0,0,49,42Zm0,6a2,2,0,1,1,1.91-1.41A2,2,0,0,1,49,48Z"/><path class="cls-1" d="M30,33a1,1,0,0,0,0,2A1,1,0,0,0,30,33Zm0,0a1,1,0,0,0,0,2A1,1,0,0,0,30,33Zm0,0a1,1,0,0,0,0,2A1,1,0,0,0,30,33Zm0,0a1,1,0,0,0,0,2A1,1,0,0,0,30,33Zm18-2c-.6-9.22-8.82-15.56-16.37-15-15.54.38-21.28,20.43-8.76,29.11A6,6,0,0,1,29,47.72,16,16,0,0,0,48,31Zm-5.28-9.52A14.46,14.46,0,0,1,44,23H36a1,1,0,0,1,0-2C43,21,42.07,20.81,42.69,21.47ZM20,23c4.9,0,8.85-.46,13.15,3.24C37.09,29.6,40.87,29,46.7,29A14.78,14.78,0,0,1,47,31c-6.07,0-10.48.7-15.11-3.24C28,24.42,24.22,25,18.74,25A15.3,15.3,0,0,1,20,23Zm7,11a3,3,0,1,1,3,3A3,3,0,0,1,27,34Zm0-5a1,1,0,0,1,0,2H19.55c-.8-.6-1.56-1.19-2.29-1.8C17.3,28.91,16.3,29,27,29ZM20,41a15.58,15.58,0,0,1-1.26-2h9.4c1,.6,2.07,1.17,3.1,1.71C29.87,41.1,30.07,41,20,41Zm18.84-4c-2.93,0-4,1.83-5.29,2.66-.7-.35-1.41-.73-2.12-1.12a5.64,5.64,0,0,0,1.87-1.25A7.93,7.93,0,0,1,38.83,35H46.7a15.19,15.19,0,0,1-.56,2ZM30,33a1,1,0,0,0,0,2A1,1,0,0,0,30,33Zm0,0a1,1,0,0,0,0,2A1,1,0,0,0,30,33Zm0,0a1,1,0,0,0,0,2A1,1,0,0,0,30,33Z"/></g></svg>